<svg viewBox="0 0 20 20" fill="none" xmlns="http://www.w3.org/2000/svg">
<path fill-rule="evenodd" clip-rule="evenodd" d="M4.75736 13.2426C7.1005 15.5858 10.8995 15.5858 13.2426 13.2426C15.5858 10.8995 15.5858 7.1005 13.2426 4.75736C10.8995 2.41421 7.1005 2.41421 4.75736 4.75736C2.41421 7.1005 2.41421 10.8995 4.75736 13.2426ZM2.63604 15.364C6.15076 18.8787 11.8492 18.8787 15.364 15.364C18.8787 11.8492 18.8787 6.15076 15.364 2.63604C11.8492 -0.87868 6.15076 -0.87868 2.63604 2.63604C-0.87868 6.15076 -0.87868 11.8492 2.63604 15.364Z" fill="#405189"/>
<path fill-rule="evenodd" clip-rule="evenodd" d="M17.4355 19.5582L13.1928 15.3155L15.3142 13.1942L19.5568 17.4369C20.1426 18.0227 20.1426 18.9724 19.5568 19.5582C18.971 20.144 18.0213 20.144 17.4355 19.5582Z" fill="#405189"/>
</svg>
