<svg viewBox="0 0 20 20" fill="none" xmlns="http://www.w3.org/2000/svg">
<path fill-rule="evenodd" clip-rule="evenodd" d="M8.11393 1.2081C8.4548 0.479549 9.18325 0 9.99722 0C10.8129 0 11.5425 0.478042 11.8841 1.20841L11.885 1.21036L13.8475 5.3763L18.2131 6.04062L18.2158 6.04102C19.0138 6.15969 19.655 6.73353 19.8955 7.48413L19.8963 7.48652C20.137 8.2444 19.9417 9.07115 19.3919 9.63827L19.3852 9.64523L16.1915 12.8761L16.9484 17.5284C17.0734 18.3024 16.7715 19.1111 16.1144 19.5935C15.4674 20.071 14.602 20.1359 13.8915 19.7455L9.99741 17.6027L6.10717 19.745L6.10291 19.7474C5.39173 20.1345 4.52693 20.0721 3.87818 19.5922C3.23226 19.1144 2.91854 18.3086 3.05011 17.5245L3.05075 17.5207L3.80634 12.8761L0.605636 9.63872C0.0533287 9.0697 -0.13762 8.24263 0.100796 7.48797L0.101318 7.48632C0.34055 6.73361 0.982009 6.15949 1.78308 6.04097L6.14728 5.37631L8.11393 1.2081Z" fill="#FFBB00"/>
</svg>
