<svg viewBox="0 0 184 60" fill="none" xmlns="http://www.w3.org/2000/svg">
<path d="M40.3061 0.550151C29.9983 -1.39769 20.3804 1.97045 13.7656 8.38211L12.0206 9.23429C10.8843 9.39661 8.89577 9.64009 6.70436 9.92415C1.50988 10.614 -1.2091 16.5387 1.67221 20.9214L4.06654 24.5736L4.67527 27.1707C4.5941 28.104 4.51294 29.0374 4.51294 30.0113C4.51294 46.568 17.9455 60 34.5029 60C53.0082 60 67.6177 43.1998 63.9247 24.046C61.6521 12.2372 52.0748 2.78206 40.3061 0.550151Z" fill="#3BA4DD"/>
<path d="M49.3547 21.9759C48.9083 20.7179 48.1778 19.5005 47.2038 18.4454C46.1893 17.3903 44.8907 16.5381 43.2268 15.8889C41.6441 15.2802 39.7368 14.9961 37.5048 14.9961H28.5362C27.4811 14.9961 26.5883 15.4019 25.8984 16.1323C25.2085 16.8628 24.8433 17.7555 24.8433 18.77V42.8746C24.8433 43.8891 25.2085 44.8225 25.939 45.5123C26.6289 46.2022 27.5622 46.608 28.5768 46.608C29.5913 46.608 30.4841 46.2428 31.2146 45.5529C31.9451 44.863 32.3509 43.9297 32.3509 42.8746V36.3818H37.586C39.818 36.3818 41.7253 36.0977 43.308 35.489C44.9313 34.8803 46.2705 34.0282 47.285 32.9731C48.259 31.918 48.9894 30.7412 49.4358 29.4426C49.8417 28.2252 50.0852 26.9672 50.0852 25.7092C50.0852 24.4513 49.8822 23.1933 49.4358 21.9759H49.3547ZM32.3103 22.3005H37.1801C39.2498 22.3005 40.3049 22.6252 40.8325 22.9092C41.4818 23.2339 41.9282 23.6397 42.1311 24.0455C42.4152 24.573 42.5369 25.1411 42.5369 25.7092C42.5369 26.2774 42.4152 26.8049 42.1311 27.373C41.9282 27.8194 41.4818 28.1846 40.8325 28.5498C40.3049 28.8339 39.2498 29.1585 37.1801 29.1585H32.3103V22.3411V22.3005Z" fill="white"/>
<path d="M95.0721 15.8483C94.5446 15.3207 93.8141 14.9961 93.043 14.9961H71.8188C71.0477 14.9961 70.3172 15.2802 69.7897 15.8483C69.2621 16.3758 68.978 17.0657 68.978 17.8367C68.978 18.6077 69.2621 19.2976 69.7897 19.8657C70.3172 20.3932 71.0071 20.6773 71.7782 20.6773H79.4481V44.092C79.4481 44.9036 79.7322 45.6341 80.3004 46.1616C80.8685 46.7297 81.599 47.0138 82.37 47.0138C83.1411 47.0138 83.9121 46.7297 84.4803 46.1616C85.0484 45.5935 85.3731 44.863 85.3731 44.0514V20.6367H93.0025C93.7735 20.6367 94.4634 20.3527 94.991 19.8251C95.5591 19.2976 95.8432 18.6077 95.8432 17.7961C95.8432 16.9845 95.5591 16.2947 94.991 15.7671L95.0721 15.8483Z" fill="#405189"/>
<path d="M106.84 22.582C105.136 22.582 103.635 23.069 102.336 24.0429C101.89 24.3676 101.484 24.7328 101.078 25.098C100.956 24.5705 100.672 24.0835 100.266 23.6777C99.0895 22.5415 97.1823 22.5415 96.046 23.6777C95.4779 24.2458 95.1938 24.9763 95.1938 25.7879V44.0895C95.1938 44.9011 95.4779 45.6315 96.046 46.1591C96.6141 46.7272 97.3446 47.0113 98.1562 47.0113C98.9678 47.0113 99.6577 46.7272 100.226 46.1591C100.794 45.5909 101.119 44.8605 101.119 44.0489V31.3879C101.727 30.5357 102.539 29.8053 103.432 29.2372C104.406 28.6285 105.501 28.3444 106.921 28.3444C107.774 28.3444 108.464 28.0603 109.032 27.5734C109.6 27.0458 109.924 26.3154 109.924 25.5038C109.924 24.6922 109.64 24.0023 109.113 23.4342C108.585 22.8661 107.855 22.582 106.84 22.582Z" fill="#405189"/>
<path d="M126.726 24.0008C125.265 23.0675 123.358 22.6211 121.086 22.6211C119.503 22.6211 118.042 22.7834 116.784 23.1081C115.526 23.4327 114.349 23.7979 113.335 24.2443C112.198 24.7313 111.59 25.624 111.59 26.8008C111.59 27.5313 111.874 28.1806 112.361 28.6675C112.848 29.1545 113.497 29.4386 114.187 29.4386C114.39 29.4386 114.674 29.4385 115.039 29.3168C115.81 29.0733 116.622 28.8299 117.514 28.6269C118.326 28.424 119.3 28.3429 120.396 28.3429C122.059 28.3429 123.277 28.6675 124.048 29.3168C124.657 29.8444 124.981 30.6965 125.062 31.9545H120.964C117.352 31.9545 114.755 32.6444 112.929 34.1053C111.062 35.6067 110.129 37.5546 110.129 39.8676C110.129 41.4097 110.494 42.7488 111.265 43.8851C111.996 44.9807 113.01 45.8329 114.227 46.4416C115.445 47.0097 116.743 47.2938 118.123 47.2938C120.315 47.2938 122.141 46.9286 123.561 46.1576C124.21 45.8329 124.778 45.4677 125.265 45.1025C125.387 45.5083 125.631 45.9141 125.955 46.2387C127.051 47.3344 128.999 47.3344 130.135 46.2387C130.703 45.6706 131.028 44.9402 131.028 44.1285V32.0763C131.028 30.5342 130.662 29.0328 129.973 27.6124C129.283 26.1516 128.187 24.9747 126.686 24.0414L126.726 24.0008ZM125.103 37.027V39.1778C124.494 39.7865 123.723 40.3952 122.83 40.8821C120.599 42.1401 117.555 41.8561 116.743 41.0445C116.297 40.5575 116.054 39.9894 116.054 39.3401C116.054 38.5285 116.378 38.001 117.149 37.6763C118.164 37.2299 119.625 36.9864 121.451 36.9864H125.062L125.103 37.027Z" fill="#405189"/>
<path d="M152.696 14.2636C152.128 14.8317 151.804 15.5622 151.804 16.4143V24.6115C151.236 24.2057 150.627 23.8405 150.018 23.5564C147.178 22.2173 143.363 22.2579 140.117 24.0434C138.372 25.0173 136.951 26.4376 135.856 28.2637C134.76 30.0898 134.192 32.3217 134.192 34.9189C134.192 37.516 134.76 39.7479 135.856 41.574C136.951 43.4001 138.372 44.8204 140.117 45.7943C141.862 46.7682 143.688 47.2552 145.554 47.2552C147.218 47.2552 148.72 46.9306 150.059 46.2813C150.749 45.9566 151.398 45.5508 152.007 45.1045C152.169 45.5103 152.412 45.8755 152.737 46.2001C153.873 47.2958 155.781 47.2958 156.917 46.2001C157.485 45.632 157.769 44.9016 157.769 44.1305V16.4549C157.769 15.6433 157.485 14.8723 156.917 14.3042C155.781 13.2085 153.914 13.2085 152.737 14.3042L152.696 14.2636ZM151.844 30.8608V39.0174C151.154 39.7073 150.343 40.316 149.45 40.803C148.436 41.3305 147.38 41.6146 146.122 41.6146C144.377 41.6146 142.957 41.087 141.821 39.9508C140.725 38.8551 140.157 37.1913 140.157 34.9594C140.157 32.7275 140.725 31.0232 141.821 29.9681C142.957 28.8724 144.377 28.3043 146.122 28.3043C147.34 28.3043 148.436 28.5478 149.45 29.1159C150.343 29.6029 151.154 30.2116 151.844 30.9014V30.8608Z" fill="#405189"/>
<path d="M178.833 40.3546C178.102 40.7198 177.331 41.0039 176.52 41.2474C175.749 41.4503 174.734 41.572 173.557 41.572C171.528 41.572 169.986 41.085 168.972 40.1111C168.16 39.3401 167.633 38.4473 167.308 37.3111H180.537C181.43 37.3111 182.16 37.027 182.688 36.4589C183.215 35.8908 183.499 35.2009 183.499 34.3893C183.499 32.3197 183.053 30.4125 182.241 28.6675C181.389 26.882 180.091 25.4211 178.467 24.3255C176.804 23.1892 174.734 22.6211 172.34 22.6211C169.783 22.6211 167.633 23.2298 165.928 24.4472C164.264 25.624 163.047 27.2066 162.235 29.0733C161.464 30.8994 161.099 32.8879 161.099 34.9574C161.099 38.8126 162.195 41.8561 164.305 44.0068C166.456 46.1576 169.418 47.2938 173.151 47.2938C175.14 47.2938 176.682 47.0909 177.859 46.7257C179.036 46.3605 180.131 45.8735 181.105 45.3054C181.551 45.0619 181.917 44.7778 182.201 44.372C182.566 43.9256 182.728 43.3981 182.728 42.83C182.728 42.059 182.444 41.3691 181.876 40.8821C181.024 40.1111 179.725 39.9488 178.751 40.4358L178.833 40.3546ZM169.986 28.4646C171.569 27.7342 173.07 27.7342 174.693 28.4646C175.464 28.8299 176.154 29.398 176.682 30.1284C177.047 30.656 177.331 31.3052 177.493 32.0763H167.227C167.389 31.3052 167.633 30.656 167.998 30.1284C168.566 29.3574 169.215 28.7893 169.986 28.4646Z" fill="#405189"/>
</svg>
