<svg viewBox="0 0 122 40" fill="none" xmlns="http://www.w3.org/2000/svg">
<path d="M26.536 0.366768C19.6644 -0.931796 13.2527 1.31364 8.84303 5.58807L7.67973 6.1562C6.92224 6.26441 5.59662 6.42673 4.13574 6.6161C0.672902 7.07601 -1.13968 11.0258 0.781115 13.9476L2.37727 16.3824L2.78307 18.1138C2.72896 18.736 2.67485 19.3583 2.67485 20.0075C2.67485 31.0453 11.6295 40 22.6673 40C35.0037 40 44.7429 28.7999 42.281 16.0307C40.766 8.15815 34.3814 1.8547 26.536 0.366768Z" fill="#3BA4DD"/>
<path d="M32.5683 14.6512C32.2707 13.8126 31.7837 13.001 31.1345 12.2976C30.4581 11.5942 29.5924 11.0261 28.4832 10.5932C27.4281 10.1874 26.1566 9.99805 24.6687 9.99805H18.6899C17.9865 9.99805 17.3913 10.2686 16.9314 10.7555C16.4715 11.2425 16.228 11.8377 16.228 12.514V28.5837C16.228 29.2601 16.4715 29.8823 16.9585 30.3422C17.4184 30.8021 18.0406 31.0726 18.7169 31.0726C19.3933 31.0726 19.9885 30.8292 20.4754 30.3693C20.9624 29.9094 21.2329 29.2871 21.2329 28.5837V24.2552H24.7228C26.2107 24.2552 27.4822 24.0658 28.5373 23.66C29.6195 23.2542 30.5122 22.6861 31.1886 21.9827C31.8378 21.2793 32.3248 20.4948 32.6224 19.6291C32.8929 18.8175 33.0552 17.9788 33.0552 17.1401C33.0552 16.3015 32.92 15.4628 32.6224 14.6512H32.5683ZM21.2059 14.8677H24.4523C25.832 14.8677 26.5354 15.0841 26.8871 15.2735C27.3199 15.4899 27.6175 15.7604 27.7528 16.031C27.9422 16.3826 28.0233 16.7614 28.0233 17.1401C28.0233 17.5189 27.9422 17.8706 27.7528 18.2493C27.6175 18.5469 27.3199 18.7904 26.8871 19.0339C26.5354 19.2233 25.832 19.4397 24.4523 19.4397H21.2059V14.8947V14.8677Z" fill="white"/>
<path d="M63.0452 10.5662C62.6935 10.2145 62.2066 9.99805 61.6926 9.99805H47.5436C47.0296 9.99805 46.5427 10.1874 46.191 10.5662C45.8393 10.9179 45.6499 11.3778 45.6499 11.8918C45.6499 12.4058 45.8393 12.8657 46.191 13.2445C46.5427 13.5961 47.0026 13.7855 47.5166 13.7855H52.6297V29.3953C52.6297 29.9364 52.8191 30.4234 53.1978 30.7751C53.5766 31.1538 54.0635 31.3432 54.5775 31.3432C55.0915 31.3432 55.6056 31.1538 55.9843 30.7751C56.363 30.3963 56.5795 29.9094 56.5795 29.3683V13.7585H61.6655C62.1795 13.7585 62.6394 13.5691 62.9911 13.2174C63.3699 12.8657 63.5593 12.4058 63.5593 11.8647C63.5593 11.3237 63.3699 10.8638 62.9911 10.5121L63.0452 10.5662Z" fill="white"/>
<path d="M70.8908 15.0547C69.7545 15.0547 68.7536 15.3793 67.8879 16.0286C67.5903 16.245 67.3197 16.4885 67.0492 16.732C66.968 16.3803 66.7787 16.0557 66.5081 15.7851C65.7236 15.0276 64.4521 15.0276 63.6946 15.7851C63.3158 16.1639 63.1265 16.6508 63.1265 17.1919V29.393C63.1265 29.9341 63.3158 30.421 63.6946 30.7727C64.0733 31.1515 64.5603 31.3408 65.1014 31.3408C65.6424 31.3408 66.1023 31.1515 66.4811 30.7727C66.8598 30.394 67.0763 29.907 67.0763 29.3659V20.9253C67.4821 20.3572 68.0231 19.8702 68.6183 19.4914C69.2676 19.0856 69.998 18.8963 70.9449 18.8963C71.513 18.8963 71.9729 18.7069 72.3517 18.3823C72.7304 18.0306 72.9468 17.5436 72.9468 17.0025C72.9468 16.4615 72.7575 16.0016 72.4058 15.6228C72.0541 15.2441 71.5671 15.0547 70.8908 15.0547Z" fill="white"/>
<path d="M84.1474 15.9999C83.1734 15.3777 81.9019 15.0801 80.3869 15.0801C79.3319 15.0801 78.3579 15.1883 77.5193 15.4047C76.6806 15.6211 75.8961 15.8646 75.2197 16.1622C74.4622 16.4869 74.0564 17.082 74.0564 17.8666C74.0564 18.3535 74.2458 18.7864 74.5705 19.111C74.8951 19.4357 75.328 19.625 75.7879 19.625C75.9231 19.625 76.1125 19.625 76.356 19.5439C76.87 19.3816 77.4111 19.2192 78.0062 19.084C78.5473 18.9487 79.1966 18.8946 79.927 18.8946C81.0362 18.8946 81.8478 19.111 82.3618 19.5439C82.7676 19.8956 82.9841 20.4637 83.0382 21.3024H80.3058C77.898 21.3024 76.1666 21.7623 74.9492 22.7362C73.7047 23.7372 73.0825 25.0357 73.0825 26.5778C73.0825 27.6058 73.326 28.4986 73.84 29.2561C74.327 29.9865 75.0033 30.5546 75.8149 30.9604C76.6265 31.3392 77.4922 31.5285 78.412 31.5285C79.8729 31.5285 81.0903 31.2851 82.0372 30.7711C82.4701 30.5546 82.8488 30.3111 83.1734 30.0677C83.2546 30.3382 83.4169 30.6087 83.6334 30.8252C84.3638 31.5556 85.6624 31.5556 86.4198 30.8252C86.7986 30.4464 87.015 29.9594 87.015 29.4184V21.3835C87.015 20.3555 86.7715 19.3545 86.3116 18.4076C85.8517 17.4337 85.1213 16.6492 84.1203 16.0269L84.1474 15.9999ZM83.0652 24.684V26.1179C82.6594 26.5237 82.1454 26.9295 81.5502 27.2541C80.0623 28.0928 78.0333 27.9034 77.4922 27.3623C77.1946 27.0377 77.0323 26.6589 77.0323 26.2261C77.0323 25.685 77.2487 25.3333 77.7628 25.1169C78.4391 24.8193 79.413 24.657 80.6304 24.657H83.0382L83.0652 24.684Z" fill="white"/>
<path d="M101.46 9.50906C101.082 9.88781 100.865 10.3748 100.865 10.9429V16.4077C100.486 16.1371 100.081 15.8937 99.6749 15.7043C97.7811 14.8115 95.2381 14.8386 93.0738 16.0289C91.9105 16.6782 90.9637 17.6251 90.2332 18.8425C89.5028 20.0599 89.124 21.5478 89.124 23.2792C89.124 25.0107 89.5028 26.4986 90.2332 27.716C90.9637 28.9334 91.9105 29.8803 93.0738 30.5296C94.2371 31.1788 95.4545 31.5035 96.699 31.5035C97.8082 31.5035 98.8091 31.287 99.7019 30.8542C100.162 30.6378 100.595 30.3672 101 30.0696C101.109 30.3402 101.271 30.5837 101.487 30.8001C102.245 31.5305 103.516 31.5305 104.274 30.8001C104.653 30.4213 104.842 29.9344 104.842 29.4204V10.9699C104.842 10.4289 104.653 9.91486 104.274 9.53611C103.516 8.80567 102.272 8.80567 101.487 9.53611L101.46 9.50906ZM100.892 20.5739V26.0116C100.432 26.4715 99.8913 26.8773 99.2961 27.202C98.6198 27.5537 97.9164 27.7431 97.0777 27.7431C95.9144 27.7431 94.9676 27.3914 94.2101 26.6339C93.4796 25.9034 93.1009 24.7942 93.1009 23.3063C93.1009 21.8184 93.4796 20.6821 94.2101 19.9787C94.9676 19.2483 95.9144 18.8695 97.0777 18.8695C97.8893 18.8695 98.6198 19.0319 99.2961 19.4106C99.8913 19.7352 100.432 20.141 100.892 20.601V20.5739Z" fill="white"/>
<path d="M118.884 26.9024C118.397 27.1459 117.883 27.3353 117.342 27.4976C116.828 27.6329 116.151 27.714 115.367 27.714C114.014 27.714 112.986 27.3894 112.31 26.7401C111.769 26.2261 111.417 25.6309 111.201 24.8734H120.02C120.615 24.8734 121.102 24.684 121.454 24.3053C121.806 23.9265 121.995 23.4666 121.995 22.9256C121.995 21.5458 121.697 20.2743 121.156 19.111C120.588 17.9207 119.723 16.9468 118.64 16.2163C117.531 15.4588 116.151 15.0801 114.555 15.0801C112.851 15.0801 111.417 15.4859 110.281 16.2975C109.172 17.082 108.36 18.1371 107.819 19.3816C107.305 20.599 107.062 21.9246 107.062 23.3043C107.062 25.8744 107.792 27.9034 109.199 29.3372C110.633 30.7711 112.607 31.5285 115.096 31.5285C116.422 31.5285 117.45 31.3933 118.235 31.1498C119.019 30.9063 119.75 30.5817 120.399 30.2029C120.696 30.0406 120.94 29.8512 121.129 29.5807C121.373 29.2831 121.481 28.9314 121.481 28.5527C121.481 28.0387 121.292 27.5787 120.913 27.2541C120.345 26.7401 119.479 26.6319 118.83 26.9565L118.884 26.9024ZM112.986 18.9758C114.041 18.4888 115.042 18.4888 116.124 18.9758C116.638 19.2192 117.098 19.598 117.45 20.085C117.694 20.4367 117.883 20.8695 117.991 21.3835H111.147C111.255 20.8695 111.417 20.4367 111.661 20.085C112.039 19.5709 112.472 19.1922 112.986 18.9758Z" fill="white"/>
</svg>
